<?xml version="1.0" encoding="utf-8"?>
<!-- Generator: Adobe Illustrator 26.0.0, SVG Export Plug-In . SVG Version: 6.00 Build 0)  -->
<svg version="1.1" id="Capa_1" xmlns="http://www.w3.org/2000/svg" xmlns:xlink="http://www.w3.org/1999/xlink" x="0px" y="0px"
	 viewBox="0 0 2035.15 841.89" style="enable-background:new 0 0 2035.15 841.89;" xml:space="preserve">
<style type="text/css">
	.st0{fill:#6E6E6E;}
	.st1{display:none;fill:#DDDDDD;}
	.st2{fill:url(#SVGID_1_);}
	.st3{filter:url(#Adobe_OpacityMaskFilter);}
	.st4{filter:url(#Adobe_OpacityMaskFilter_00000158006132348377254440000010609467962728673673_);}
	
		.st5{mask:url(#SVGID_00000056408454165396740970000017600841355213591475_);fill:url(#SVGID_00000091002800275013957150000002341440014922400166_);}
	.st6{fill:url(#SVGID_00000024690065646594231280000002398144278881001344_);}
	.st7{fill:url(#SVGID_00000127759504002832297270000009886701156132552335_);}
	.st8{filter:url(#Adobe_OpacityMaskFilter_00000019663039733482141640000002410274376360502148_);}
	.st9{filter:url(#Adobe_OpacityMaskFilter_00000029017025128357853570000001393880811982371459_);}
	
		.st10{mask:url(#SVGID_00000143581098542486395420000003902515868029597849_);fill:url(#SVGID_00000146475714260657513690000001217404993185621432_);}
	.st11{display:none;fill:url(#SVGID_00000031930065100680850660000003498389018304281734_);}
	.st12{filter:url(#Adobe_OpacityMaskFilter_00000022547148054996005920000012142783147886988478_);}
	.st13{filter:url(#Adobe_OpacityMaskFilter_00000155840708364249856050000016470809279193210776_);}
	
		.st14{mask:url(#SVGID_00000153692427544746101800000005562831922473091200_);fill:url(#SVGID_00000155139940460734234180000018263462049246999739_);}
	.st15{display:none;fill:url(#SVGID_00000174581855643228702970000001616102832883465106_);}
	.st16{fill:#888989;}
</style>
<rect id="_x30_2" y="-2.06" class="st0" width="1318.97" height="843.94"/>
<path class="st1" d="M16.53,780.45c2.52-3.78,6.88-5.97,11.63-4.97c4.52,0.96,8.18,4.98,9.06,9.97c1.44,8.19-4.2,15.34-11.35,15.34
	c-2.73,0-5.25-1.04-7.23-2.79L0,806.72V841h550.56c23.24,0,42.08-20.8,42.08-46.45V46.2c0-25.02-18.38-45.31-41.05-45.31H0v38.35
	l3.69,2.42l13.3,2.99c0.86-1.26,5.42-3.56,8.87-3.56c7.15,0,12.79,7.16,11.35,15.34c-0.88,4.98-4.52,9-9.03,9.97
	c-7.41,1.59-13.9-4.64-13.9-12.53c0-0.39-11.09-1.61-11.09-1.61L0,53.82v73.64l16.26,0.84c2.45-4,6.9-6.39,11.77-5.42
	c4.58,0.92,8.3,4.95,9.18,10c1.44,8.18-4.2,15.34-11.35,15.34c-4.38,0-8.19-2.68-10.15-6.64L0,142.15v80.51l14.53-3.03
	c-0.27-1.46-0.32-3.01-0.11-4.61c0.77-5.62,5.03-10.09,10.15-10.71c7.73-0.93,14.14,6.56,12.65,15.2
	c-0.87,5.09-4.62,9.17-9.24,10.07c-2.1,0.41-4.12,0.2-5.93-0.5l-14.42,1.8L0,236.96v51.02l17.45,1.83
	c2.56-2.99,6.42-4.62,10.59-3.79c4.57,0.92,8.29,4.96,9.18,10c1.44,8.18-4.2,15.34-11.35,15.34c-3.51,0-6.66-1.73-8.79-4.46
	L0,306.47v69.87l5.42-0.54c0.89-1.81,12.43-5.09,13.97-6.24c2.22-1.65,4.97-2.48,7.92-2.09c5.23,0.7,9.47,5.43,10.06,11.21
	c0.78,7.72-4.67,14.25-11.5,14.25c-3.83,0-7.22-2.05-9.33-5.21c-0.71-1.06-10.42,2.74-11.86,1.94L0,391.02v58.45l17.32,3.63
	c2.55-3.08,6.45-4.78,10.66-3.95c4.6,0.9,8.34,4.94,9.24,10.01c1.44,8.18-4.2,15.34-11.35,15.34c-4.46,0-8.33-2.78-10.26-6.86
	L0,468.24v61.45l17.68,4.58c2.58-2.85,6.38-4.36,10.46-3.5c4.53,0.95,8.19,4.98,9.08,9.97c1.44,8.18-4.2,15.34-11.35,15.34
	c-4.24,0-7.95-2.51-9.96-6.27L0,543v71.5l17.33,1.72c2.55-3.07,6.44-4.75,10.65-3.93c4.6,0.9,8.34,4.95,9.22,10.01
	c1.44,8.18-4.2,15.34-11.35,15.34c-3.57,0-6.77-1.79-8.89-4.59L0,635.99v55.46l16.77,7.09c2.39-3.34,6.26-5.34,10.52-4.78
	c5.24,0.69,9.49,5.43,10.07,11.21c0.78,7.71-4.67,14.25-11.5,14.25c-3.2,0-6.09-1.43-8.18-3.74L0,719.18v63.62L16.53,780.45z"/>
<path class="st1" d="M742.86,780.45c2.52-3.78,6.88-5.97,11.63-4.97c4.52,0.96,8.18,4.98,9.06,9.97c1.44,8.19-4.2,15.34-11.35,15.34
	c-2.73,0-5.25-1.04-7.23-2.79l-18.63,8.72V841h550.56c23.24,0,42.08-20.8,42.08-46.45V46.2c0-25.02-18.38-45.31-41.05-45.31H726.33
	v38.35l3.69,2.42l13.3,2.99c0.86-1.26,5.42-3.56,8.87-3.56c7.15,0,12.79,7.16,11.35,15.34c-0.88,4.98-4.52,9-9.03,9.97
	c-7.41,1.59-13.9-4.64-13.9-12.53c0-0.39-11.09-1.61-11.09-1.61l-3.2,1.56v73.64l16.26,0.84c2.45-4,6.9-6.39,11.77-5.42
	c4.58,0.92,8.3,4.95,9.18,10c1.44,8.18-4.2,15.34-11.35,15.34c-4.38,0-8.19-2.68-10.15-6.64l-15.71,0.56v80.51l14.53-3.03
	c-0.27-1.46-0.32-3.01-0.11-4.61c0.77-5.62,5.03-10.09,10.15-10.71c7.73-0.93,14.14,6.56,12.65,15.2
	c-0.87,5.09-4.62,9.17-9.24,10.07c-2.1,0.41-4.12,0.2-5.93-0.5l-14.42,1.8l-7.63,6.08v51.02l17.45,1.83
	c2.56-2.99,6.42-4.62,10.59-3.79c4.57,0.92,8.29,4.96,9.18,10c1.44,8.18-4.2,15.34-11.35,15.34c-3.51,0-6.66-1.73-8.79-4.46
	l-17.07-0.44v69.87l5.42-0.54c0.89-1.81,12.43-5.09,13.97-6.24c2.22-1.65,4.97-2.48,7.92-2.09c5.23,0.7,9.47,5.43,10.06,11.21
	c0.78,7.72-4.67,14.25-11.5,14.25c-3.83,0-7.22-2.05-9.33-5.21c-0.71-1.06-10.42,2.74-11.86,1.94l-4.68,1.36v58.45l17.32,3.63
	c2.55-3.08,6.45-4.78,10.66-3.95c4.6,0.9,8.34,4.94,9.24,10.01c1.44,8.18-4.2,15.34-11.35,15.34c-4.46,0-8.33-2.78-10.26-6.86
	l-15.6,0.59v61.45l17.68,4.58c2.58-2.85,6.38-4.36,10.46-3.5c4.53,0.95,8.19,4.98,9.08,9.97c1.44,8.18-4.2,15.34-11.35,15.34
	c-4.24,0-7.95-2.51-9.96-6.27l-15.9-6.81v71.5l17.33,1.72c2.55-3.07,6.44-4.75,10.65-3.93c4.6,0.9,8.34,4.95,9.22,10.01
	c1.44,8.18-4.2,15.34-11.35,15.34c-3.57,0-6.77-1.79-8.89-4.59l-16.97,2.93v55.46l16.77,7.09c2.39-3.34,6.26-5.34,10.52-4.78
	c5.24,0.69,9.49,5.43,10.07,11.21c0.78,7.71-4.67,14.25-11.5,14.25c-3.2,0-6.09-1.43-8.18-3.74l-17.68,3.7v63.62L742.86,780.45z"/>
<g>
	<linearGradient id="SVGID_1_" gradientUnits="userSpaceOnUse" x1="176.9587" y1="644.6931" x2="507.2249" y2="-15.838">
		<stop  offset="0.6375" style="stop-color:#F3F4F4"/>
		<stop  offset="1" style="stop-color:#EDEEEE"/>
	</linearGradient>
	<path class="st2" d="M16.89,786.24c2.53-3.85,6.91-6.08,11.67-5.06c4.54,0.98,8.21,5.07,9.09,10.14
		c1.44,8.33-4.22,15.61-11.4,15.61c-2.75,0-5.27-1.06-7.26-2.84L0.3,812.97v34.87h552.73c23.33,0,42.25-21.16,42.25-47.25V39.26
		c0-25.46-18.45-46.1-41.21-46.1H0.3v39.02L4,34.64l13.35,3.04c0.86-1.28,5.44-3.62,8.9-3.62c7.18,0,12.84,7.28,11.4,15.61
		c-0.88,5.07-4.53,9.16-9.06,10.14c-7.44,1.62-13.95-4.71-13.95-12.75c0-0.4-11.13-1.64-11.13-1.64L0.3,47.01v74.91l16.33,0.86
		c2.46-4.07,6.93-6.5,11.81-5.51c4.6,0.93,8.33,5.04,9.22,10.17c1.45,8.32-4.21,15.61-11.4,15.61c-4.39,0-8.22-2.73-10.19-6.75
		L0.3,136.87v81.9l14.58-3.08c-0.28-1.49-0.32-3.07-0.11-4.69c0.77-5.72,5.05-10.27,10.19-10.89c7.76-0.94,14.2,6.67,12.7,15.46
		c-0.88,5.18-4.64,9.32-9.28,10.24c-2.11,0.42-4.13,0.2-5.96-0.51l-14.47,1.84l-7.66,6.18v51.9l17.52,1.86
		c2.57-3.05,6.45-4.7,10.63-3.85c4.59,0.94,8.32,5.04,9.21,10.17c1.44,8.32-4.22,15.61-11.4,15.61c-3.53,0-6.69-1.76-8.82-4.54
		L0.3,304.04v71.08l5.44-0.55c0.89-1.84,12.48-5.18,14.03-6.34c2.22-1.68,4.99-2.52,7.95-2.12c5.25,0.71,9.51,5.52,10.1,11.4
		c0.79,7.85-4.69,14.5-11.55,14.5c-3.84,0-7.25-2.09-9.36-5.3c-0.71-1.08-10.46,2.78-11.9,1.97l-4.7,1.38v59.47l17.38,3.7
		c2.56-3.13,6.47-4.86,10.71-4.02c4.62,0.92,8.38,5.03,9.27,10.18c1.44,8.33-4.22,15.61-11.4,15.61c-4.48,0-8.36-2.83-10.3-6.98
		l-15.66,0.6v62.51l17.75,4.66c2.59-2.9,6.4-4.44,10.5-3.56c4.55,0.97,8.23,5.06,9.11,10.15c1.44,8.32-4.22,15.61-11.4,15.61
		c-4.26,0-7.98-2.56-10-6.38L0.3,544.68v72.74l17.4,1.75c2.56-3.12,6.47-4.84,10.7-4c4.62,0.92,8.37,5.03,9.26,10.18
		c1.45,8.33-4.21,15.61-11.4,15.61c-3.59,0-6.79-1.82-8.93-4.67L0.3,639.27v56.42l16.84,7.21c2.4-3.4,6.29-5.43,10.56-4.86
		c5.26,0.7,9.53,5.52,10.11,11.41c0.78,7.85-4.69,14.5-11.55,14.5c-3.21,0-6.11-1.45-8.22-3.81L0.3,723.91v64.72L16.89,786.24z"/>
	<defs>
		<filter id="Adobe_OpacityMaskFilter" filterUnits="userSpaceOnUse" x="0.15" y="-7" width="595.28" height="855">
			<feFlood  style="flood-color:white;flood-opacity:1" result="back"/>
			<feBlend  in="SourceGraphic" in2="back" mode="normal"/>
		</filter>
	</defs>
	
		<mask maskUnits="userSpaceOnUse" x="0.15" y="-7" width="595.28" height="855" id="SVGID_00000042735624225550208650000009911782954000262329_">
		<g class="st3">
			<defs>
				
					<filter id="Adobe_OpacityMaskFilter_00000154421355474995831840000004873379829503824015_" filterUnits="userSpaceOnUse" x="0.15" y="-7" width="595.28" height="855">
					<feFlood  style="flood-color:white;flood-opacity:1" result="back"/>
					<feBlend  in="SourceGraphic" in2="back" mode="normal"/>
				</filter>
			</defs>
			
				<mask maskUnits="userSpaceOnUse" x="0.15" y="-7" width="595.28" height="855" id="SVGID_00000042735624225550208650000009911782954000262329_">
				<g style="filter:url(#Adobe_OpacityMaskFilter_00000154421355474995831840000004873379829503824015_);">
				</g>
			</mask>
			
				<linearGradient id="SVGID_00000157301312694988564770000016259308880681703588_" gradientUnits="userSpaceOnUse" x1="0.1477" y1="420.5" x2="595.4233" y2="420.5">
				<stop  offset="0" style="stop-color:#000000"/>
				<stop  offset="0.5" style="stop-color:#FFFFFF"/>
				<stop  offset="1" style="stop-color:#FFFFFF"/>
			</linearGradient>
			
				<path style="mask:url(#SVGID_00000042735624225550208650000009911782954000262329_);fill:url(#SVGID_00000157301312694988564770000016259308880681703588_);" d="
				M553.03,848H0.15v-35.14l0.09-0.04l18.79-8.92l0.07,0.07c2.06,1.84,4.53,2.81,7.17,2.81c3.44,0,6.67-1.7,8.86-4.68
				c2.19-2.97,3.06-6.88,2.39-10.74c-0.87-5.02-4.48-9.05-8.97-10.01c-4.44-0.96-8.87,0.95-11.53,4.99l-0.04,0.06l-0.06,0.01
				l-16.77,2.41v-65.05l0.12-0.02l17.82-3.78l0.05,0.06c2.17,2.42,5.05,3.76,8.12,3.76c3.26,0,6.38-1.56,8.55-4.28
				c2.21-2.76,3.22-6.32,2.85-10.03c-0.58-5.83-4.78-10.57-9.98-11.26c-4.04-0.52-7.93,1.26-10.43,4.8l-0.07,0.1l-0.1-0.04
				l-16.93-7.25v-56.68l0.13-0.02l17.12-3l0.05,0.07c2.19,2.93,5.4,4.62,8.82,4.62c3.44,0,6.67-1.7,8.86-4.68
				c2.19-2.97,3.06-6.88,2.39-10.74c-0.89-5.1-4.56-9.14-9.14-10.05c-3.94-0.78-7.89,0.69-10.56,3.94l-0.05,0.06l-0.07-0.01
				l-17.54-1.77v-73.13l0.2,0.09l16.01,6.95l0.02,0.05c2.06,3.88,5.85,6.29,9.88,6.29c3.44,0,6.67-1.7,8.86-4.67
				c2.19-2.97,3.06-6.88,2.39-10.74c-0.87-5.03-4.49-9.06-8.99-10.02c-3.87-0.82-7.64,0.46-10.37,3.52l-0.06,0.06l-0.08-0.02
				l-17.86-4.69v-62.8l15.9-0.6l0.04,0.09c1.99,4.25,5.89,6.89,10.17,6.89c3.44,0,6.67-1.7,8.86-4.68
				c2.19-2.97,3.06-6.88,2.39-10.74c-0.89-5.1-4.56-9.14-9.15-10.05c-3.95-0.79-7.9,0.7-10.57,3.97l-0.05,0.07l-0.08-0.02
				l-17.51-3.72v-59.73l4.86-1.43l0.05,0.03c0.66,0.37,3.5-0.39,6.01-1.07c3.42-0.92,5.53-1.47,5.94-0.86
				c2.16,3.28,5.61,5.23,9.25,5.23c3.26,0,6.38-1.56,8.55-4.28c2.21-2.76,3.22-6.32,2.85-10.04c-0.58-5.82-4.77-10.55-9.97-11.26
				c-2.79-0.38-5.57,0.37-7.85,2.09c-0.61,0.46-2.7,1.23-5.12,2.13c-3.52,1.3-8.34,3.08-8.86,4.16l-0.04,0.08l-0.08,0.01l-5.6,0.57
				v-71.43l0.15,0l17.21,0.44l0.04,0.06c2.19,2.85,5.36,4.48,8.71,4.48c3.44,0,6.67-1.7,8.86-4.68c2.19-2.97,3.06-6.88,2.39-10.73
				c-0.88-5.08-4.54-9.11-9.09-10.04c-3.89-0.8-7.82,0.63-10.5,3.8l-0.05,0.06l-0.07-0.01l-17.65-1.88v-52.14l0.06-0.05l7.7-6.21
				l0.04,0l14.51-1.84l0.03,0.01c1.88,0.73,3.86,0.9,5.88,0.5c4.61-0.91,8.29-4.98,9.16-10.11c0.7-4.11-0.33-8.2-2.83-11.22
				c-2.5-3.02-6.04-4.48-9.71-4.05c-5.07,0.62-9.3,5.14-10.06,10.75c-0.21,1.56-0.18,3.12,0.1,4.63l0.03,0.16l-0.15,0.03
				l-14.76,3.12v-82.27l16-0.58l0.04,0.09c2.02,4.11,5.88,6.67,10.07,6.67c3.44,0,6.67-1.7,8.86-4.68
				c2.19-2.97,3.06-6.88,2.39-10.74c-0.88-5.08-4.54-9.12-9.1-10.04c-4.61-0.94-9.07,1.15-11.66,5.44l-0.05,0.08l-0.08,0
				l-16.47-0.86V46.9l0.09-0.04l3.25-1.6l0.04,0c11.26,1.25,11.26,1.61,11.26,1.8c0,3.85,1.52,7.46,4.18,9.91
				c2.66,2.45,6.15,3.43,9.6,2.68c4.48-0.97,8.08-5,8.95-10.01c0.67-3.85-0.2-7.77-2.39-10.74c-2.19-2.97-5.42-4.67-8.86-4.67
				c-3.5,0-7.98,2.35-8.79,3.55l-0.05,0.08l-0.09-0.02l-13.4-3.06l-3.78-2.51V-7h553.91c22.81,0,41.36,20.75,41.36,46.26v761.32
				C595.42,826.73,576.41,848,553.03,848z M0.44,847.67h552.59c23.21,0,42.1-21.12,42.1-47.09V39.26
				c0-25.33-18.42-45.93-41.07-45.93H0.44v38.76l3.62,2.4L17.3,37.5c1.06-1.39,5.65-3.6,8.96-3.6c3.53,0,6.84,1.75,9.08,4.79
				c2.25,3.05,3.14,7.06,2.45,11.01c-0.89,5.14-4.58,9.27-9.18,10.27c-3.54,0.77-7.12-0.23-9.84-2.74
				c-2.71-2.5-4.27-6.17-4.29-10.08c-0.68-0.32-7-1.11-10.96-1.55l-3.09,1.52v74.65l16.1,0.85c2.66-4.35,7.22-6.46,11.92-5.51
				c4.68,0.95,8.43,5.09,9.34,10.3c0.69,3.95-0.21,7.96-2.45,11.01c-2.25,3.05-5.56,4.79-9.08,4.79c-4.27,0-8.2-2.58-10.28-6.75
				l-15.54,0.56v81.55l14.26-3.02c-0.26-1.49-0.29-3.03-0.08-4.58c0.78-5.76,5.11-10.4,10.32-11.03c3.79-0.46,7.41,1.06,9.96,4.15
				c2.56,3.1,3.62,7.29,2.9,11.51c-0.89,5.27-4.67,9.44-9.4,10.38c-2.06,0.41-4.08,0.24-6-0.5l-14.4,1.82l-7.58,6.11v51.67
				l17.31,1.84c2.75-3.21,6.74-4.65,10.72-3.84c4.67,0.95,8.42,5.09,9.33,10.3c0.69,3.95-0.21,7.96-2.45,11.01
				c-2.25,3.05-5.56,4.8-9.08,4.8c-3.42,0-6.65-1.65-8.89-4.54l-16.93-0.44v70.73l5.21-0.53c0.73-1.18,5.11-2.8,8.98-4.24
				c2.4-0.88,4.47-1.65,5.05-2.09c2.34-1.77,5.19-2.53,8.05-2.15c5.33,0.72,9.63,5.58,10.22,11.55c0.38,3.81-0.65,7.46-2.92,10.29
				c-2.23,2.79-5.43,4.39-8.77,4.39c-3.73,0-7.27-2.01-9.49-5.37c-0.3-0.46-3.26,0.34-5.63,0.98c-2.74,0.74-5.34,1.44-6.16,1.07
				l-4.54,1.34v59.2l17.19,3.65c2.74-3.3,6.77-4.8,10.78-4c4.71,0.93,8.48,5.08,9.39,10.31c0.69,3.95-0.21,7.96-2.45,11.01
				c-2.25,3.05-5.56,4.79-9.08,4.79c-4.36,0-8.34-2.67-10.39-6.97l-15.43,0.59v62.22l17.55,4.61c2.8-3.09,6.65-4.38,10.58-3.54
				c4.62,0.98,8.33,5.11,9.22,10.28c0.69,3.95-0.21,7.96-2.45,11.01c-2.25,3.04-5.56,4.79-9.08,4.79c-4.12,0-7.99-2.45-10.11-6.41
				l-15.72-6.82v72.35l17.2,1.73c2.74-3.3,6.76-4.79,10.78-3.99c4.7,0.93,8.47,5.08,9.38,10.31c0.69,3.95-0.21,7.96-2.45,11.01
				c-2.25,3.05-5.56,4.79-9.08,4.79c-3.47,0-6.74-1.7-8.99-4.66l-16.83,2.95v56.17l16.64,7.13c2.56-3.57,6.53-5.37,10.63-4.82
				c5.34,0.71,9.65,5.57,10.24,11.55c0.38,3.81-0.66,7.46-2.92,10.29c-2.23,2.79-5.43,4.39-8.77,4.39c-3.12,0-6.05-1.35-8.27-3.8
				l-17.55,3.73v64.4l16.37-2.36c2.73-4.1,7.24-6.04,11.78-5.06c4.61,0.99,8.31,5.12,9.2,10.27c0.69,3.95-0.21,7.96-2.45,11.01
				c-2.25,3.05-5.56,4.79-9.08,4.79c-2.67,0-5.19-0.97-7.28-2.81l-18.54,8.79V847.67z"/>
		</g>
	</mask>
	
		<linearGradient id="SVGID_00000034790503514607370890000016010509601292036748_" gradientUnits="userSpaceOnUse" x1="0.1477" y1="420.5" x2="595.4233" y2="420.5">
		<stop  offset="0" style="stop-color:#C2C5C6"/>
		<stop  offset="0.5" style="stop-color:#DADAD9"/>
		<stop  offset="1" style="stop-color:#EFEEEE"/>
	</linearGradient>
	<path style="fill:url(#SVGID_00000034790503514607370890000016010509601292036748_);" d="M553.03,848H0.15v-35.14l0.09-0.04
		l18.79-8.92l0.07,0.07c2.06,1.84,4.53,2.81,7.17,2.81c3.44,0,6.67-1.7,8.86-4.68c2.19-2.97,3.06-6.88,2.39-10.74
		c-0.87-5.02-4.48-9.05-8.97-10.01c-4.44-0.96-8.87,0.95-11.53,4.99l-0.04,0.06l-0.06,0.01l-16.77,2.41v-65.05l0.12-0.02l17.82-3.78
		l0.05,0.06c2.17,2.42,5.05,3.76,8.12,3.76c3.26,0,6.38-1.56,8.55-4.28c2.21-2.76,3.22-6.32,2.85-10.03
		c-0.58-5.83-4.78-10.57-9.98-11.26c-4.04-0.52-7.93,1.26-10.43,4.8l-0.07,0.1l-0.1-0.04l-16.93-7.25v-56.68l0.13-0.02l17.12-3
		l0.05,0.07c2.19,2.93,5.4,4.62,8.82,4.62c3.44,0,6.67-1.7,8.86-4.68c2.19-2.97,3.06-6.88,2.39-10.74
		c-0.89-5.1-4.56-9.14-9.14-10.05c-3.94-0.78-7.89,0.69-10.56,3.94l-0.05,0.06l-0.07-0.01l-17.54-1.77v-73.13l0.2,0.09l16.01,6.95
		l0.02,0.05c2.06,3.88,5.85,6.29,9.88,6.29c3.44,0,6.67-1.7,8.86-4.67c2.19-2.97,3.06-6.88,2.39-10.74
		c-0.87-5.03-4.49-9.06-8.99-10.02c-3.87-0.82-7.64,0.46-10.37,3.52l-0.06,0.06l-0.08-0.02l-17.86-4.69v-62.8l15.9-0.6l0.04,0.09
		c1.99,4.25,5.89,6.89,10.17,6.89c3.44,0,6.67-1.7,8.86-4.68c2.19-2.97,3.06-6.88,2.39-10.74c-0.89-5.1-4.56-9.14-9.15-10.05
		c-3.95-0.79-7.9,0.7-10.57,3.97l-0.05,0.07l-0.08-0.02l-17.51-3.72v-59.73l4.86-1.43l0.05,0.03c0.66,0.37,3.5-0.39,6.01-1.07
		c3.42-0.92,5.53-1.47,5.94-0.86c2.16,3.28,5.61,5.23,9.25,5.23c3.26,0,6.38-1.56,8.55-4.28c2.21-2.76,3.22-6.32,2.85-10.04
		c-0.58-5.82-4.77-10.55-9.97-11.26c-2.79-0.38-5.57,0.37-7.85,2.09c-0.61,0.46-2.7,1.23-5.12,2.13c-3.52,1.3-8.34,3.08-8.86,4.16
		l-0.04,0.08l-0.08,0.01l-5.6,0.57v-71.43l0.15,0l17.21,0.44l0.04,0.06c2.19,2.85,5.36,4.48,8.71,4.48c3.44,0,6.67-1.7,8.86-4.68
		c2.19-2.97,3.06-6.88,2.39-10.73c-0.88-5.08-4.54-9.11-9.09-10.04c-3.89-0.8-7.82,0.63-10.5,3.8l-0.05,0.06l-0.07-0.01l-17.65-1.88
		v-52.14l0.06-0.05l7.7-6.21l0.04,0l14.51-1.84l0.03,0.01c1.88,0.73,3.86,0.9,5.88,0.5c4.61-0.91,8.29-4.98,9.16-10.11
		c0.7-4.11-0.33-8.2-2.83-11.22c-2.5-3.02-6.04-4.48-9.71-4.05c-5.07,0.62-9.3,5.14-10.06,10.75c-0.21,1.56-0.18,3.12,0.1,4.63
		l0.03,0.16l-0.15,0.03l-14.76,3.12v-82.27l16-0.58l0.04,0.09c2.02,4.11,5.88,6.67,10.07,6.67c3.44,0,6.67-1.7,8.86-4.68
		c2.19-2.97,3.06-6.88,2.39-10.74c-0.88-5.08-4.54-9.12-9.1-10.04c-4.61-0.94-9.07,1.15-11.66,5.44l-0.05,0.08l-0.08,0l-16.47-0.86
		V46.9l0.09-0.04l3.25-1.6l0.04,0c11.26,1.25,11.26,1.61,11.26,1.8c0,3.85,1.52,7.46,4.18,9.91c2.66,2.45,6.15,3.43,9.6,2.68
		c4.48-0.97,8.08-5,8.95-10.01c0.67-3.85-0.2-7.77-2.39-10.74c-2.19-2.97-5.42-4.67-8.86-4.67c-3.5,0-7.98,2.35-8.79,3.55
		l-0.05,0.08l-0.09-0.02l-13.4-3.06l-3.78-2.51V-7h553.91c22.81,0,41.36,20.75,41.36,46.26v761.32
		C595.42,826.73,576.41,848,553.03,848z M0.44,847.67h552.59c23.21,0,42.1-21.12,42.1-47.09V39.26c0-25.33-18.42-45.93-41.07-45.93
		H0.44v38.76l3.62,2.4L17.3,37.5c1.06-1.39,5.65-3.6,8.96-3.6c3.53,0,6.84,1.75,9.08,4.79c2.25,3.05,3.14,7.06,2.45,11.01
		c-0.89,5.14-4.58,9.27-9.18,10.27c-3.54,0.77-7.12-0.23-9.84-2.74c-2.71-2.5-4.27-6.17-4.29-10.08c-0.68-0.32-7-1.11-10.96-1.55
		l-3.09,1.52v74.65l16.1,0.85c2.66-4.35,7.22-6.46,11.92-5.51c4.68,0.95,8.43,5.09,9.34,10.3c0.69,3.95-0.21,7.96-2.45,11.01
		c-2.25,3.05-5.56,4.79-9.08,4.79c-4.27,0-8.2-2.58-10.28-6.75l-15.54,0.56v81.55l14.26-3.02c-0.26-1.49-0.29-3.03-0.08-4.58
		c0.78-5.76,5.11-10.4,10.32-11.03c3.79-0.46,7.41,1.06,9.96,4.15c2.56,3.1,3.62,7.29,2.9,11.51c-0.89,5.27-4.67,9.44-9.4,10.38
		c-2.06,0.41-4.08,0.24-6-0.5l-14.4,1.82l-7.58,6.11v51.67l17.31,1.84c2.75-3.21,6.74-4.65,10.72-3.84
		c4.67,0.95,8.42,5.09,9.33,10.3c0.69,3.95-0.21,7.96-2.45,11.01c-2.25,3.05-5.56,4.8-9.08,4.8c-3.42,0-6.65-1.65-8.89-4.54
		l-16.93-0.44v70.73l5.21-0.53c0.73-1.18,5.11-2.8,8.98-4.24c2.4-0.88,4.47-1.65,5.05-2.09c2.34-1.77,5.19-2.53,8.05-2.15
		c5.33,0.72,9.63,5.58,10.22,11.55c0.38,3.81-0.65,7.46-2.92,10.29c-2.23,2.79-5.43,4.39-8.77,4.39c-3.73,0-7.27-2.01-9.49-5.37
		c-0.3-0.46-3.26,0.34-5.63,0.98c-2.74,0.74-5.34,1.44-6.16,1.07l-4.54,1.34v59.2l17.19,3.65c2.74-3.3,6.77-4.8,10.78-4
		c4.71,0.93,8.48,5.08,9.39,10.31c0.69,3.95-0.21,7.96-2.45,11.01c-2.25,3.05-5.56,4.79-9.08,4.79c-4.36,0-8.34-2.67-10.39-6.97
		l-15.43,0.59v62.22l17.55,4.61c2.8-3.09,6.65-4.38,10.58-3.54c4.62,0.98,8.33,5.11,9.22,10.28c0.69,3.95-0.21,7.96-2.45,11.01
		c-2.25,3.04-5.56,4.79-9.08,4.79c-4.12,0-7.99-2.45-10.11-6.41l-15.72-6.82v72.35l17.2,1.73c2.74-3.3,6.76-4.79,10.78-3.99
		c4.7,0.93,8.47,5.08,9.38,10.31c0.69,3.95-0.21,7.96-2.45,11.01c-2.25,3.05-5.56,4.79-9.08,4.79c-3.47,0-6.74-1.7-8.99-4.66
		l-16.83,2.95v56.17l16.64,7.13c2.56-3.57,6.53-5.37,10.63-4.82c5.34,0.71,9.65,5.57,10.24,11.55c0.38,3.81-0.66,7.46-2.92,10.29
		c-2.23,2.79-5.43,4.39-8.77,4.39c-3.12,0-6.05-1.35-8.27-3.8l-17.55,3.73v64.4l16.37-2.36c2.73-4.1,7.24-6.04,11.78-5.06
		c4.61,0.99,8.31,5.12,9.2,10.27c0.69,3.95-0.21,7.96-2.45,11.01c-2.25,3.05-5.56,4.79-9.08,4.79c-2.67,0-5.19-0.97-7.28-2.81
		l-18.54,8.79V847.67z"/>
</g>
<linearGradient id="SVGID_00000124863584008051562630000002002606988802627759_" gradientUnits="userSpaceOnUse" x1="969.3741" y1="836.622" x2="1514.1372" y2="-252.9019">
	<stop  offset="0.6375" style="stop-color:#F3F4F4"/>
	<stop  offset="1" style="stop-color:#EDEEEE"/>
</linearGradient>
<path style="fill:url(#SVGID_00000124863584008051562630000002002606988802627759_);" d="M1914.53-42H303.15
	c11.18,30.96,44.77,60.96,56.02,91.97c13.27,36.59,8.09,73.53,8.21,110.26c0.41,133.57,1.28,267.18,5.36,400.74
	c3.41,111.67,8.88,223.55-14.73,335.04h1552.66c87.45,0,158.35-23.22,158.35-51.86V8.59C2069.02-19.35,1999.86-42,1914.53-42z"/>
<defs>
	
		<filter id="Adobe_OpacityMaskFilter_00000140736927824464507820000008775426803143591854_" filterUnits="userSpaceOnUse" x="576" y="1.62" width="471.26" height="840.43">
		<feFlood  style="flood-color:white;flood-opacity:1" result="back"/>
		<feBlend  in="SourceGraphic" in2="back" mode="normal"/>
	</filter>
</defs>
<mask maskUnits="userSpaceOnUse" x="576" y="1.62" width="471.26" height="840.43" id="SVGID_00000072277499915843662140000005535781960400156304_">
	<g style="filter:url(#Adobe_OpacityMaskFilter_00000140736927824464507820000008775426803143591854_);">
		<defs>
			
				<filter id="Adobe_OpacityMaskFilter_00000000201915316111858760000014358843272957471364_" filterUnits="userSpaceOnUse" x="451.99" y="1.62" width="595.28" height="840.43">
				<feFlood  style="flood-color:white;flood-opacity:1" result="back"/>
				<feBlend  in="SourceGraphic" in2="back" mode="normal"/>
			</filter>
		</defs>
		
			<mask maskUnits="userSpaceOnUse" x="451.99" y="1.62" width="595.28" height="840.43" id="SVGID_00000072277499915843662140000005535781960400156304_">
			<g style="filter:url(#Adobe_OpacityMaskFilter_00000000201915316111858760000014358843272957471364_);">
			</g>
		</mask>
		
			<linearGradient id="SVGID_00000139981003510505389900000001182680532949941128_" gradientUnits="userSpaceOnUse" x1="451.9915" y1="421.837" x2="1047.2671" y2="421.837">
			<stop  offset="0" style="stop-color:#000000"/>
			<stop  offset="0.5" style="stop-color:#FFFFFF"/>
			<stop  offset="1" style="stop-color:#FFFFFF"/>
		</linearGradient>
		
			<path style="mask:url(#SVGID_00000072277499915843662140000005535781960400156304_);fill:url(#SVGID_00000139981003510505389900000001182680532949941128_);" d="
			M1004.87,842.05H451.99v-34.54l0.09-0.04l18.79-8.76l0.07,0.06c2.06,1.8,4.53,2.76,7.17,2.76c3.44,0,6.67-1.68,8.86-4.6
			c2.19-2.92,3.06-6.76,2.39-10.55c-0.87-4.94-4.48-8.89-8.97-9.84c-4.44-0.94-8.87,0.94-11.53,4.91l-0.04,0.06l-0.06,0.01
			l-16.77,2.37v-63.94l0.12-0.02l17.82-3.72l0.05,0.06c2.17,2.38,5.05,3.7,8.12,3.7c3.26,0,6.38-1.53,8.55-4.21
			c2.21-2.71,3.22-6.21,2.85-9.86c-0.58-5.73-4.78-10.39-9.98-11.07c-4.04-0.51-7.93,1.23-10.43,4.72l-0.07,0.09l-0.1-0.04
			l-16.93-7.13v-55.71l0.13-0.02l17.12-2.94l0.05,0.07c2.19,2.88,5.4,4.54,8.82,4.54c3.44,0,6.67-1.68,8.86-4.6
			c2.19-2.92,3.06-6.77,2.39-10.55c-0.89-5.01-4.56-8.98-9.14-9.87c-3.94-0.77-7.89,0.68-10.56,3.88l-0.05,0.06l-0.07-0.01
			l-17.54-1.74v-71.89l0.2,0.08l16.01,6.83l0.02,0.05c2.06,3.82,5.85,6.19,9.88,6.19c3.44,0,6.67-1.68,8.86-4.59
			c2.19-2.92,3.06-6.77,2.39-10.55c-0.87-4.95-4.49-8.9-8.99-9.85c-3.87-0.81-7.64,0.45-10.37,3.46l-0.06,0.06l-0.08-0.02
			l-17.86-4.61v-61.73l15.9-0.59l0.04,0.09c1.99,4.18,5.89,6.77,10.17,6.77c3.44,0,6.67-1.68,8.86-4.6
			c2.19-2.92,3.06-6.76,2.39-10.55c-0.89-5.01-4.56-8.98-9.15-9.88c-3.95-0.77-7.9,0.69-10.57,3.9l-0.05,0.07l-0.08-0.02
			l-17.51-3.66v-58.71l4.86-1.41l0.05,0.03c0.66,0.36,3.5-0.38,6.01-1.05c3.42-0.91,5.53-1.44,5.94-0.84
			c2.16,3.22,5.61,5.15,9.25,5.15c3.26,0,6.38-1.53,8.55-4.21c2.21-2.71,3.22-6.21,2.85-9.87c-0.58-5.72-4.77-10.37-9.97-11.06
			c-2.79-0.38-5.57,0.36-7.85,2.06c-0.61,0.45-2.7,1.21-5.12,2.09c-3.52,1.28-8.34,3.03-8.86,4.09l-0.04,0.08l-0.08,0.01l-5.6,0.56
			V307.2l0.15,0l17.21,0.43l0.04,0.06c2.19,2.8,5.36,4.4,8.71,4.4c3.44,0,6.67-1.68,8.86-4.6c2.19-2.92,3.06-6.77,2.39-10.55
			c-0.88-4.99-4.54-8.96-9.09-9.87c-3.89-0.78-7.82,0.62-10.5,3.74l-0.05,0.06l-0.07-0.01l-17.65-1.85v-51.25l0.06-0.05l7.7-6.1
			l0.04,0l14.51-1.81l0.03,0.01c1.88,0.72,3.86,0.89,5.88,0.49c4.61-0.9,8.29-4.89,9.16-9.94c0.7-4.04-0.33-8.06-2.83-11.03
			c-2.5-2.97-6.04-4.41-9.71-3.98c-5.07,0.61-9.3,5.05-10.06,10.57c-0.21,1.54-0.18,3.07,0.1,4.55l0.03,0.16l-0.15,0.03l-14.76,3.07
			v-80.86l16-0.57l0.04,0.09c2.02,4.04,5.88,6.55,10.07,6.55c3.44,0,6.67-1.68,8.86-4.6c2.19-2.92,3.06-6.76,2.39-10.55
			c-0.88-4.99-4.54-8.96-9.1-9.87c-4.61-0.93-9.07,1.13-11.66,5.35l-0.05,0.08l-0.08,0l-16.47-0.85v-73.9l0.09-0.04l3.25-1.58
			l0.04,0c11.26,1.23,11.26,1.58,11.26,1.77c0,3.78,1.52,7.33,4.18,9.74c2.66,2.41,6.15,3.37,9.6,2.63
			c4.48-0.96,8.08-4.91,8.95-9.84c0.67-3.79-0.2-7.63-2.39-10.55c-2.19-2.92-5.42-4.59-8.86-4.59c-3.5,0-7.98,2.31-8.79,3.49
			l-0.05,0.08l-0.09-0.02l-13.4-3.01l-3.78-2.46V1.62h553.91c22.81,0,41.36,20.4,41.36,45.47v748.35
			C1047.27,821.14,1028.25,842.05,1004.87,842.05z M452.29,841.73h552.59c23.21,0,42.1-20.76,42.1-46.29V47.1
			c0-24.89-18.42-45.15-41.07-45.15H452.29v38.1l3.62,2.36l13.24,2.97c1.06-1.37,5.65-3.54,8.96-3.54c3.53,0,6.84,1.72,9.08,4.71
			c2.25,3,3.14,6.94,2.45,10.82c-0.89,5.06-4.58,9.11-9.18,10.09c-3.54,0.76-7.12-0.23-9.84-2.7c-2.71-2.45-4.27-6.06-4.29-9.91
			c-0.68-0.31-7-1.09-10.96-1.52l-3.09,1.5v73.37l16.1,0.83c2.66-4.27,7.22-6.35,11.92-5.41c4.68,0.93,8.43,5,9.34,10.13
			c0.69,3.88-0.21,7.83-2.45,10.82c-2.25,3-5.56,4.71-9.08,4.71c-4.27,0-8.2-2.54-10.28-6.63l-15.54,0.55v80.16l14.26-2.96
			c-0.26-1.47-0.29-2.98-0.08-4.5c0.78-5.66,5.11-10.22,10.32-10.84c3.79-0.45,7.41,1.04,9.96,4.08c2.56,3.05,3.62,7.17,2.9,11.31
			c-0.89,5.18-4.67,9.28-9.4,10.2c-2.06,0.4-4.08,0.23-6-0.5l-14.4,1.79l-7.58,6v50.79l17.31,1.81c2.75-3.16,6.74-4.57,10.72-3.78
			c4.67,0.94,8.42,5.01,9.33,10.12c0.69,3.88-0.21,7.83-2.45,10.82c-2.25,3-5.56,4.72-9.08,4.72c-3.42,0-6.65-1.63-8.89-4.46
			l-16.93-0.43v69.53l5.21-0.52c0.73-1.16,5.11-2.76,8.98-4.16c2.4-0.87,4.47-1.62,5.05-2.05c2.34-1.74,5.19-2.49,8.05-2.11
			c5.33,0.71,9.63,5.48,10.22,11.35c0.38,3.74-0.65,7.33-2.92,10.11c-2.23,2.74-5.43,4.32-8.77,4.32c-3.73,0-7.27-1.97-9.49-5.28
			c-0.3-0.45-3.26,0.33-5.63,0.96c-2.74,0.73-5.34,1.42-6.16,1.05l-4.54,1.31v58.19l17.19,3.59c2.74-3.25,6.77-4.72,10.79-3.94
			c4.71,0.92,8.48,4.99,9.39,10.14c0.69,3.88-0.21,7.83-2.45,10.82c-2.25,3-5.56,4.71-9.08,4.71c-4.36,0-8.34-2.62-10.39-6.85
			l-15.43,0.58v61.16l17.55,4.53c2.8-3.03,6.65-4.3,10.58-3.48c4.62,0.97,8.33,5.03,9.22,10.1c0.69,3.88-0.21,7.83-2.45,10.82
			c-2.25,2.99-5.56,4.71-9.08,4.71c-4.12,0-7.99-2.41-10.11-6.3l-15.72-6.7v71.12l17.2,1.7c2.74-3.24,6.76-4.71,10.78-3.92
			c4.7,0.92,8.47,4.99,9.38,10.13c0.69,3.88-0.21,7.83-2.45,10.82c-2.25,3-5.56,4.71-9.08,4.71c-3.47,0-6.74-1.67-8.99-4.58
			l-16.83,2.9v55.21l16.64,7c2.56-3.51,6.53-5.28,10.63-4.74c5.34,0.7,9.65,5.48,10.24,11.36c0.38,3.74-0.66,7.33-2.92,10.11
			c-2.23,2.74-5.43,4.32-8.77,4.32c-3.12,0-6.05-1.32-8.27-3.73l-17.55,3.66v63.3l16.37-2.32c2.73-4.03,7.24-5.94,11.78-4.98
			c4.61,0.98,8.31,5.03,9.2,10.1c0.69,3.88-0.21,7.83-2.45,10.82c-2.25,2.99-5.56,4.71-9.08,4.71c-2.67,0-5.19-0.96-7.28-2.77
			l-18.54,8.64V841.73z"/>
	</g>
</mask>
<linearGradient id="SVGID_00000018928731739437405170000012011640118195953833_" gradientUnits="userSpaceOnUse" x1="451.9915" y1="421.837" x2="1047.2671" y2="421.837">
	<stop  offset="0" style="stop-color:#C2C5C6"/>
	<stop  offset="0.5" style="stop-color:#DADAD9"/>
	<stop  offset="1" style="stop-color:#EFEEEE"/>
</linearGradient>
<path style="display:none;fill:url(#SVGID_00000018928731739437405170000012011640118195953833_);" d="M1005.9,1.62H576
	c0.01,0.11,0.02,0.22,0.03,0.32h429.87c22.65,0,41.07,20.25,41.07,45.15v748.35c0,25.52-18.89,46.29-42.1,46.29H590.66
	c-0.01,0.11-0.01,0.21-0.02,0.32h414.23c23.38,0,42.39-20.91,42.39-46.61V47.1C1047.27,22.02,1028.71,1.62,1005.9,1.62z"/>
<defs>
	
		<filter id="Adobe_OpacityMaskFilter_00000171681298880113231720000014732484859716440983_" filterUnits="userSpaceOnUse" x="807.05" y="1.62" width="512.22" height="840.43">
		<feFlood  style="flood-color:white;flood-opacity:1" result="back"/>
		<feBlend  in="SourceGraphic" in2="back" mode="normal"/>
	</filter>
</defs>
<mask maskUnits="userSpaceOnUse" x="807.05" y="1.62" width="512.22" height="840.43" id="SVGID_00000068665452961285285390000013983735418527518619_">
	<g style="filter:url(#Adobe_OpacityMaskFilter_00000171681298880113231720000014732484859716440983_);">
		<defs>
			
				<filter id="Adobe_OpacityMaskFilter_00000005958322198448163930000000320658496483391677_" filterUnits="userSpaceOnUse" x="723.99" y="1.62" width="595.28" height="840.43">
				<feFlood  style="flood-color:white;flood-opacity:1" result="back"/>
				<feBlend  in="SourceGraphic" in2="back" mode="normal"/>
			</filter>
		</defs>
		
			<mask maskUnits="userSpaceOnUse" x="723.99" y="1.62" width="595.28" height="840.43" id="SVGID_00000068665452961285285390000013983735418527518619_">
			<g style="filter:url(#Adobe_OpacityMaskFilter_00000005958322198448163930000000320658496483391677_);">
			</g>
		</mask>
		
			<linearGradient id="SVGID_00000087389961996254379800000012323803370739804846_" gradientUnits="userSpaceOnUse" x1="723.9916" y1="421.837" x2="1319.2671" y2="421.837">
			<stop  offset="0" style="stop-color:#000000"/>
			<stop  offset="0.5" style="stop-color:#FFFFFF"/>
			<stop  offset="1" style="stop-color:#FFFFFF"/>
		</linearGradient>
		
			<path style="mask:url(#SVGID_00000068665452961285285390000013983735418527518619_);fill:url(#SVGID_00000087389961996254379800000012323803370739804846_);" d="
			M1276.87,842.05H723.99v-34.54l0.09-0.04l18.79-8.76l0.07,0.06c2.06,1.8,4.53,2.76,7.17,2.76c3.44,0,6.67-1.68,8.86-4.6
			c2.19-2.92,3.06-6.76,2.39-10.55c-0.87-4.94-4.48-8.89-8.97-9.84c-4.44-0.94-8.87,0.94-11.53,4.91l-0.04,0.06l-0.06,0.01
			l-16.77,2.37v-63.94l0.12-0.02l17.82-3.72l0.05,0.06c2.17,2.38,5.05,3.7,8.12,3.7c3.26,0,6.38-1.53,8.55-4.21
			c2.21-2.71,3.22-6.21,2.85-9.86c-0.58-5.73-4.78-10.39-9.98-11.07c-4.04-0.51-7.93,1.23-10.43,4.72l-0.07,0.09l-0.1-0.04
			l-16.93-7.13v-55.71l0.13-0.02l17.12-2.94l0.05,0.07c2.19,2.88,5.4,4.54,8.82,4.54c3.44,0,6.67-1.68,8.86-4.6
			c2.19-2.92,3.06-6.77,2.39-10.55c-0.89-5.01-4.56-8.98-9.14-9.87c-3.94-0.77-7.89,0.68-10.56,3.88l-0.05,0.06l-0.07-0.01
			l-17.54-1.74v-71.89l0.2,0.08l16.01,6.83l0.02,0.05c2.06,3.82,5.85,6.19,9.88,6.19c3.44,0,6.67-1.68,8.86-4.59
			c2.19-2.92,3.06-6.77,2.39-10.55c-0.87-4.95-4.49-8.9-8.99-9.85c-3.87-0.81-7.64,0.45-10.37,3.46l-0.06,0.06l-0.08-0.02
			l-17.86-4.61v-61.73l15.9-0.59l0.04,0.09c1.99,4.18,5.89,6.77,10.17,6.77c3.44,0,6.67-1.68,8.86-4.6
			c2.19-2.92,3.06-6.76,2.39-10.55c-0.89-5.01-4.56-8.98-9.15-9.88c-3.95-0.77-7.9,0.69-10.57,3.9l-0.05,0.07l-0.08-0.02
			l-17.51-3.66v-58.71l4.86-1.41l0.05,0.03c0.66,0.36,3.5-0.38,6.01-1.05c3.42-0.91,5.53-1.44,5.94-0.84
			c2.16,3.22,5.61,5.15,9.25,5.15c3.26,0,6.38-1.53,8.55-4.21c2.21-2.71,3.22-6.21,2.85-9.87c-0.58-5.72-4.77-10.37-9.97-11.06
			c-2.79-0.38-5.57,0.36-7.85,2.06c-0.61,0.45-2.7,1.21-5.12,2.09c-3.52,1.28-8.34,3.03-8.86,4.09l-0.04,0.08l-0.08,0.01l-5.6,0.56
			V307.2l0.15,0l17.21,0.43l0.04,0.06c2.19,2.8,5.36,4.4,8.71,4.4c3.44,0,6.67-1.68,8.86-4.6c2.19-2.92,3.06-6.77,2.39-10.55
			c-0.88-4.99-4.54-8.96-9.09-9.87c-3.89-0.78-7.82,0.62-10.5,3.74l-0.05,0.06l-0.07-0.01l-17.65-1.85v-51.25l0.06-0.05l7.7-6.1
			l0.04,0l14.51-1.81l0.03,0.01c1.88,0.72,3.86,0.89,5.88,0.49c4.61-0.9,8.29-4.89,9.16-9.94c0.7-4.04-0.33-8.06-2.83-11.03
			c-2.5-2.97-6.04-4.41-9.71-3.98c-5.07,0.61-9.3,5.05-10.06,10.57c-0.21,1.54-0.18,3.07,0.1,4.55l0.03,0.16l-0.15,0.03l-14.76,3.07
			v-80.86l16-0.57l0.04,0.09c2.02,4.04,5.88,6.55,10.07,6.55c3.44,0,6.67-1.68,8.86-4.6c2.19-2.92,3.06-6.76,2.39-10.55
			c-0.88-4.99-4.54-8.96-9.1-9.87c-4.61-0.93-9.07,1.13-11.66,5.35l-0.05,0.08l-0.08,0l-16.47-0.85v-73.9l0.09-0.04l3.25-1.58
			l0.04,0c11.26,1.23,11.26,1.58,11.26,1.77c0,3.78,1.52,7.33,4.18,9.74c2.66,2.41,6.15,3.37,9.6,2.63
			c4.48-0.96,8.08-4.91,8.95-9.84c0.67-3.79-0.2-7.63-2.39-10.55c-2.19-2.92-5.42-4.59-8.86-4.59c-3.5,0-7.98,2.31-8.79,3.49
			l-0.05,0.08l-0.09-0.02l-13.4-3.01l-3.78-2.46V1.62h553.91c22.81,0,41.36,20.4,41.36,45.47v748.35
			C1319.27,821.14,1300.25,842.05,1276.87,842.05z M724.29,841.73h552.59c23.21,0,42.1-20.76,42.1-46.29V47.1
			c0-24.89-18.42-45.15-41.07-45.15H724.29v38.1l3.62,2.36l13.24,2.97c1.06-1.37,5.65-3.54,8.96-3.54c3.53,0,6.84,1.72,9.08,4.71
			c2.25,3,3.14,6.94,2.45,10.82c-0.89,5.06-4.58,9.11-9.18,10.09c-3.54,0.76-7.12-0.23-9.84-2.7c-2.71-2.45-4.27-6.06-4.29-9.91
			c-0.68-0.31-7-1.09-10.96-1.52l-3.09,1.5v73.37l16.1,0.83c2.66-4.27,7.22-6.35,11.92-5.41c4.68,0.93,8.43,5,9.34,10.13
			c0.69,3.88-0.21,7.83-2.45,10.82c-2.25,3-5.56,4.71-9.08,4.71c-4.27,0-8.2-2.54-10.28-6.63l-15.54,0.55v80.16l14.26-2.96
			c-0.26-1.47-0.29-2.98-0.08-4.5c0.78-5.66,5.11-10.22,10.32-10.84c3.79-0.45,7.41,1.04,9.96,4.08c2.56,3.05,3.62,7.17,2.9,11.31
			c-0.89,5.18-4.67,9.28-9.4,10.2c-2.06,0.4-4.08,0.23-6-0.5l-14.4,1.79l-7.58,6v50.79l17.31,1.81c2.75-3.16,6.74-4.57,10.72-3.78
			c4.67,0.94,8.42,5.01,9.33,10.12c0.69,3.88-0.21,7.83-2.45,10.82c-2.25,3-5.56,4.72-9.08,4.72c-3.42,0-6.65-1.63-8.89-4.46
			l-16.93-0.43v69.53l5.21-0.52c0.73-1.16,5.11-2.76,8.98-4.16c2.4-0.87,4.47-1.62,5.05-2.05c2.34-1.74,5.19-2.49,8.05-2.11
			c5.33,0.71,9.63,5.48,10.22,11.35c0.38,3.74-0.65,7.33-2.92,10.11c-2.23,2.74-5.43,4.32-8.77,4.32c-3.73,0-7.27-1.97-9.49-5.28
			c-0.3-0.45-3.26,0.33-5.63,0.96c-2.74,0.73-5.34,1.42-6.16,1.05l-4.54,1.31v58.19l17.19,3.59c2.74-3.25,6.77-4.72,10.78-3.94
			c4.71,0.92,8.48,4.99,9.39,10.14c0.69,3.88-0.21,7.83-2.45,10.82c-2.25,3-5.56,4.71-9.08,4.71c-4.36,0-8.34-2.62-10.39-6.85
			l-15.43,0.58v61.16l17.55,4.53c2.8-3.03,6.65-4.3,10.58-3.48c4.62,0.97,8.33,5.03,9.22,10.1c0.69,3.88-0.21,7.83-2.45,10.82
			c-2.25,2.99-5.56,4.71-9.08,4.71c-4.12,0-7.99-2.41-10.11-6.3l-15.72-6.7v71.12l17.2,1.7c2.74-3.24,6.76-4.71,10.78-3.92
			c4.7,0.92,8.47,4.99,9.38,10.13c0.69,3.88-0.21,7.83-2.45,10.82c-2.25,3-5.56,4.71-9.08,4.71c-3.47,0-6.74-1.67-8.99-4.58
			l-16.83,2.9v55.21l16.64,7c2.56-3.51,6.53-5.28,10.63-4.74c5.34,0.7,9.65,5.48,10.24,11.36c0.38,3.74-0.66,7.33-2.92,10.11
			c-2.23,2.74-5.43,4.32-8.77,4.32c-3.12,0-6.05-1.32-8.27-3.73l-17.55,3.66v63.3l16.37-2.32c2.73-4.03,7.24-5.94,11.78-4.98
			c4.61,0.98,8.31,5.03,9.2,10.1c0.69,3.88-0.21,7.83-2.45,10.82c-2.25,2.99-5.56,4.71-9.08,4.71c-2.67,0-5.19-0.96-7.28-2.77
			l-18.54,8.64V841.73z"/>
	</g>
</mask>
<linearGradient id="SVGID_00000060029726367508536930000010951530010938489230_" gradientUnits="userSpaceOnUse" x1="723.9916" y1="421.837" x2="1319.2671" y2="421.837">
	<stop  offset="0" style="stop-color:#C2C5C6"/>
	<stop  offset="0.5" style="stop-color:#DADAD9"/>
	<stop  offset="1" style="stop-color:#EFEEEE"/>
</linearGradient>
<path style="display:none;fill:url(#SVGID_00000060029726367508536930000010951530010938489230_);" d="M1277.9,1.62H831.18
	c0.08,0.11,0.16,0.22,0.23,0.32h446.49c22.65,0,41.07,20.25,41.07,45.15v748.35c0,25.52-18.89,46.29-42.1,46.29h-469.8
	c-0.01,0.11-0.02,0.21-0.02,0.32h469.82c23.38,0,42.39-20.91,42.39-46.61V47.1C1319.27,22.02,1300.71,1.62,1277.9,1.62z"/>
<g>
	<g>
		<rect x="63.25" y="-0.41" class="st16" width="1946.02" height="0.33"/>
	</g>
	<g>
		<rect x="63.25" y="32.22" class="st16" width="1946.02" height="0.33"/>
	</g>
	<g>
		<rect x="63.25" y="64.85" class="st16" width="1946.02" height="0.32"/>
	</g>
	<g>
		<rect x="63.25" y="97.48" class="st16" width="1946.02" height="0.32"/>
	</g>
	<g>
		<rect x="63.25" y="130.1" class="st16" width="1946.02" height="0.32"/>
	</g>
	<g>
		<rect x="63.25" y="162.73" class="st16" width="1946.02" height="0.32"/>
	</g>
	<g>
		<rect x="63.25" y="195.36" class="st16" width="1946.02" height="0.33"/>
	</g>
	<g>
		<rect x="63.25" y="227.99" class="st16" width="1946.02" height="0.33"/>
	</g>
	<g>
		<rect x="63.25" y="260.62" class="st16" width="1946.02" height="0.33"/>
	</g>
	<g>
		<rect x="63.25" y="293.25" class="st16" width="1946.02" height="0.33"/>
	</g>
	<g>
		<rect x="63.25" y="325.88" class="st16" width="1946.02" height="0.32"/>
	</g>
	<g>
		<rect x="63.25" y="358.51" class="st16" width="1946.02" height="0.32"/>
	</g>
	<g>
		<rect x="63.25" y="391.13" class="st16" width="1946.02" height="0.32"/>
	</g>
	<g>
		<rect x="63.25" y="423.76" class="st16" width="1946.02" height="0.32"/>
	</g>
	<g>
		<rect x="63.25" y="456.39" class="st16" width="1946.02" height="0.32"/>
	</g>
	<g>
		<rect x="63.25" y="489.02" class="st16" width="1946.02" height="0.33"/>
	</g>
	<g>
		<rect x="63.25" y="521.65" class="st16" width="1946.02" height="0.33"/>
	</g>
	<g>
		<rect x="63.25" y="554.28" class="st16" width="1946.02" height="0.33"/>
	</g>
	<g>
		<rect x="63.25" y="586.91" class="st16" width="1946.02" height="0.33"/>
	</g>
	<g>
		<rect x="63.25" y="619.53" class="st16" width="1946.02" height="0.33"/>
	</g>
	<g>
		<rect x="63.25" y="652.16" class="st16" width="1946.02" height="0.32"/>
	</g>
	<g>
		<rect x="63.25" y="684.79" class="st16" width="1946.02" height="0.32"/>
	</g>
	<g>
		<rect x="63.25" y="717.42" class="st16" width="1946.02" height="0.32"/>
	</g>
	<rect x="55.15" y="750.37" class="st16" width="1946.02" height="0.33"/>
	<rect x="55.15" y="783" class="st16" width="1946.02" height="0.32"/>
	<rect x="55.15" y="815.63" class="st16" width="1946.02" height="0.32"/>
</g>
</svg>
